:FULLY-SPECIFIED
:FORCE-ALL-JOINTS-BE-3DOF
:DEGREES
194
root 8.24415 16.5964 -10.1182 7.40144 3.91355 -3.4583
lfemur -32.3181 3.26782 -15.7743
ltibia 33.8404 -0 0
lfoot -10.053 11.9621 0.0507785
ltoes -15.9451 0 0
rfemur -6.41434 4.13828 28.4817
rtibia 17.0367 -0 0
rfoot -16.5323 3.49589 -0.0325655
rtoes -10.8565 0 0
lowerback -5.67596 0.950723 1.50394
upperback -0.962336 1.09395 3.43606
thorax 2.18639 0.549089 2.81533
lowerneck -17.0698 -6.83177 -14.5041
upperneck 14.7467 -8.56138 14.9485
head 8.72454 -3.49061 6.40355
lclavicle 2.61402e-14 3.18055e-15 0
lhumerus -48.3397 -10.9182 96.4069
lradius 27.3132 -0 0
lwrist 7.76086 0 0
lhand -8.83392 -22.4149 0.109198
lfingers 7.12502 -0 0
lthumb 17.1007 6.77731 0.0832962
rclavicle 2.61402e-14 3.18055e-15 0
rhumerus -38.4848 10.6724 -81.22
rradius 47.1969 -0 0
rwrist -24.706 0 0
rhand -31.7682 -28.3456 0.0211874
rfingers 7.12502 -0 0
rthumb -5.02467 -58.2552 0.0196957
195
root 8.24499 16.5939 -9.9921 7.39941 3.72848 -3.53924
lfemur -33.1509 3.09058 -15.7853
ltibia 33.0524 -0 0
lfoot -10.4595 11.921 0.0481484
ltoes -16.0313 0 0
rfemur -5.69581 4.20791 28.6467
rtibia 16.6015 -0 0
rfoot -16.6497 3.5872 -0.0308807
rtoes -10.7232 0 0
lowerback -5.71238 1.03967 1.5619
upperback -0.938764 1.20685 3.43497
thorax 2.22632 0.605678 2.78939
lowerneck -17.0155 -6.81874 -14.5017
upperneck 14.7521 -8.55345 14.9574
head 8.71566 -3.48811 6.40837
lclavicle 2.61402e-14 3.18055e-15 0
lhumerus -48.439 -10.8566 96.3789
lradius 27.3365 -0 0
lwrist 7.87842 0 0
lhand -9.10997 -22.5452 0.103545
lfingers 7.12502 -0 0
lthumb 16.8353 6.67395 0.0789849
rclavicle 2.61402e-14 3.18055e-15 0
rhumerus -38.254 10.7077 -81.2033
rradius 47.6201 -0 0
rwrist -24.9022 0 0
rhand -31.8872 -28.4043 0.0200913
rfingers 7.12502 -0 0
rthumb -5.13954 -58.3116 0.0186768
196
root 8.24584 16.5913 -9.86599 7.39765 3.54341 -3.62015
lfemur -33.9836 2.91321 -15.7937
ltibia 32.2645 -0 0
lfoot -10.8661 11.8799 0.0452264
ltoes -16.1176 0 0
rfemur -4.97701 4.27547 28.8125
rtibia 16.1662 -0 0
rfoot -16.7672 3.6785 -0.0290088
rtoes -10.5898 0 0
lowerback -5.74871 1.12866 1.6198
upperback -0.915194 1.31975 3.43394
thorax 2.26622 0.662285 2.76349
lowerneck -16.9613 -6.80571 -14.4993
upperneck 14.7575 -8.54552 14.9662
head 8.70679 -3.48561 6.41319
lclavicle 2.61402e-14 3.18055e-15 0
lhumerus -48.5384 -10.7952 96.3507
lradius 27.3597 -0 0
lwrist 7.99598 0 0
lhand -9.38602 -22.6754 0.0972654
lfingers 7.12502 -0 0
lthumb 16.5699 6.57062 0.0741948
rclavicle 2.61402e-14 3.18055e-15 0
rhumerus -38.0231 10.7429 -81.1865
rradius 48.0433 -0 0
rwrist -25.0984 0 0
rhand -32.0061 -28.4629 0.0188735
rfingers 7.12502 -0 0
rthumb -5.25441 -58.3681 0.0175447
197
root 8.24668 16.5888 -9.73989 7.39615 3.35833 -3.70105
lfemur -34.8162 2.73573 -15.7995
ltibia 31.4765 -0 0
lfoot -11.2726 11.8388 0.0420129
ltoes -16.2038 0 0
rfemur -4.25796 4.34094 28.9792
rtibia 15.731 -0 0
rfoot -16.8846 3.76979 -0.0269498
rtoes -10.4565 0 0
lowerback -5.78496 1.21768 1.67765
upperback -0.891624 1.43265 3.43294
thorax 2.3061 0.71891 2.73763
lowerneck -16.907 -6.79268 -14.4968
upperneck 14.7628 -8.53759 14.9751
head 8.69791 -3.48311 6.41801
lclavicle 2.61402e-14 3.18055e-15 0
lhumerus -48.6377 -10.7338 96.3224
lradius 27.383 -0 0
lwrist 8.11354 0 0
lhand -9.66205 -22.8056 0.090358
lfingers 7.12502 -0 0
lthumb 16.3046 6.4673 0.0689263
rclavicle 2.61402e-14 3.18055e-15 0
rhumerus -37.7922 10.778 -81.1696
rradius 48.4666 -0 0
rwrist -25.2946 0 0
rhand -32.1251 -28.5216 0.0175339
rfingers 7.12502 -0 0
rthumb -5.36927 -58.4245 0.0162995
